# xmcd CD database file
# Copyright (C) 1993-1996 Ti Kan
#
# Track frame offsets:
# 150
# 11827
# 23865
# 34295
# 46685
# 60092
# 72955
# 85372
# 95775
# 106272
# 116830
# 125977
# 138620
# 151585
# 166052
# 179730
# 191925
# 205452
# 218117
# 228822
# 240212
# 252842
# 264537
# 276067
# 286407
# 295272
# 308625
# 318760
# 327465
# 337825
#
# Disc length: 4679 seconds
#
# Revision: 0
# Processed by: cddbd v1.5.1PL0 Copyright (c) Steve Scherf et al.
# Submitted via: inCDius 1.1b5
#
DISCID=b612451e
DTITLE=Carl Smith - Satisfaction Guaranteed - Disc 3
DYEAR=1996
DGENRE=Country
TTITLE0=Loose Talk
TTITLE1=Time Changes Everything
TTITLE2=Baby I'm Ready
TTITLE3=Kisses Don't Lie
TTITLE4=Wait A Little Longer Please, Jesus
TTITLE5=Works Of The Lord
TTITLE6=Answers
TTITLE7=My Dream Of The Old Rugged Cross
TTITLE8=I Just Don't Care Anymore
TTITLE9=Oh Stop!
TTITLE10=Baby I'm Ready
TTITLE11=There's A Bottle Where She Used To Be
TTITLE12=Wicked Lies
TTITLE13=Old Lonesome Times
TTITLE14=I've Changed
TTITLE15=There She Goes
TTITLE16=No Second Chance
TTITLE17=Come Back To Me
TTITLE18=Don't Tease Me
TTITLE19=If You Do Dear
TTITLE20=I Just Dropped In To Say Goodbye
TTITLE21=I Feel Like Cryin'
TTITLE22=You're Free To Go
TTITLE23=Outlaw
TTITLE24=Snowdeer
TTITLE25=Doorstep To Heaven
TTITLE26=You Are The One
TTITLE27=If You Want It, I've Got It 
TTITLE28=Before I Met You
TTITLE29=Mr. Moon
EXTD=
EXTT0=
EXTT1=
EXTT2=
EXTT3=
EXTT4=
EXTT5=
EXTT6=
EXTT7=
EXTT8=
EXTT9=
EXTT10=
EXTT11=
EXTT12=
EXTT13=
EXTT14=
EXTT15=
EXTT16=
EXTT17=
EXTT18=
EXTT19=
EXTT20=
EXTT21=
EXTT22=
EXTT23=
EXTT24=
EXTT25=
EXTT26=
EXTT27=
EXTT28=
EXTT29=
PLAYORDER=
